<mxfile host="app.diagrams.net" modified="2023-08-16T15:52:41.104Z" agent="Mozilla/5.0 (Macintosh; Intel Mac OS X 10_15_7) AppleWebKit/605.1.15 (KHTML, like Gecko) Version/16.3 Safari/605.1.15" etag="s-lD-bMJodocu7Bdisnd" version="21.6.8" type="github">
  <diagram id="R2lEEEUBdFMjLlhIrx00" name="Page-1">
    <mxGraphModel dx="837" dy="976" grid="1" gridSize="10" guides="1" tooltips="1" connect="1" arrows="1" fold="1" page="1" pageScale="1" pageWidth="850" pageHeight="1100" math="0" shadow="0" extFonts="Permanent Marker^https://fonts.googleapis.com/css?family=Permanent+Marker">
      <root>
        <mxCell id="0" />
        <mxCell id="1" parent="0" />
        <mxCell id="yTVPJnO3fjhA-Ieh83C9-1" value="&lt;b style=&quot;border-color: var(--border-color);&quot;&gt;&lt;b style=&quot;border-color: var(--border-color);&quot;&gt;Mongo&lt;/b&gt;.Settlements&lt;/b&gt;" style="swimlane;fontStyle=0;childLayout=stackLayout;horizontal=1;startSize=30;horizontalStack=0;resizeParent=1;resizeParentMax=0;resizeLast=0;collapsible=1;marginBottom=0;whiteSpace=wrap;html=1;" vertex="1" parent="1">
          <mxGeometry x="1202" y="330" width="269" height="240" as="geometry" />
        </mxCell>
        <mxCell id="yTVPJnO3fjhA-Ieh83C9-2" value="&lt;b&gt;PK&lt;/b&gt;&lt;span style=&quot;white-space: pre;&quot;&gt;&#x9;&lt;/span&gt;id" style="text;strokeColor=none;fillColor=none;align=left;verticalAlign=middle;spacingLeft=4;spacingRight=4;overflow=hidden;points=[[0,0.5],[1,0.5]];portConstraint=eastwest;rotatable=0;whiteSpace=wrap;html=1;" vertex="1" parent="yTVPJnO3fjhA-Ieh83C9-1">
          <mxGeometry y="30" width="269" height="30" as="geometry" />
        </mxCell>
        <mxCell id="yTVPJnO3fjhA-Ieh83C9-3" value="&lt;span style=&quot;white-space: pre;&quot;&gt;&#x9;&lt;/span&gt;createdat" style="text;strokeColor=none;fillColor=none;align=left;verticalAlign=middle;spacingLeft=4;spacingRight=4;overflow=hidden;points=[[0,0.5],[1,0.5]];portConstraint=eastwest;rotatable=0;whiteSpace=wrap;html=1;" vertex="1" parent="yTVPJnO3fjhA-Ieh83C9-1">
          <mxGeometry y="60" width="269" height="30" as="geometry" />
        </mxCell>
        <mxCell id="yTVPJnO3fjhA-Ieh83C9-4" value="&lt;b&gt;FK&lt;/b&gt;&lt;span style=&quot;font-weight: bold; white-space: pre;&quot;&gt;&#x9;&lt;/span&gt;transactionid" style="text;strokeColor=none;fillColor=none;align=left;verticalAlign=middle;spacingLeft=4;spacingRight=4;overflow=hidden;points=[[0,0.5],[1,0.5]];portConstraint=eastwest;rotatable=0;whiteSpace=wrap;html=1;" vertex="1" parent="yTVPJnO3fjhA-Ieh83C9-1">
          <mxGeometry y="90" width="269" height="30" as="geometry" />
        </mxCell>
        <mxCell id="yTVPJnO3fjhA-Ieh83C9-5" value="&lt;span style=&quot;white-space: pre;&quot;&gt;&#x9;&lt;/span&gt;type" style="text;strokeColor=none;fillColor=none;align=left;verticalAlign=middle;spacingLeft=4;spacingRight=4;overflow=hidden;points=[[0,0.5],[1,0.5]];portConstraint=eastwest;rotatable=0;whiteSpace=wrap;html=1;" vertex="1" parent="yTVPJnO3fjhA-Ieh83C9-1">
          <mxGeometry y="120" width="269" height="30" as="geometry" />
        </mxCell>
        <mxCell id="yTVPJnO3fjhA-Ieh83C9-6" value="&lt;span style=&quot;white-space: pre;&quot;&gt;&#x9;&lt;/span&gt;subtype" style="text;strokeColor=none;fillColor=none;align=left;verticalAlign=middle;spacingLeft=4;spacingRight=4;overflow=hidden;points=[[0,0.5],[1,0.5]];portConstraint=eastwest;rotatable=0;whiteSpace=wrap;html=1;" vertex="1" parent="yTVPJnO3fjhA-Ieh83C9-1">
          <mxGeometry y="150" width="269" height="30" as="geometry" />
        </mxCell>
        <mxCell id="yTVPJnO3fjhA-Ieh83C9-7" value="&lt;span style=&quot;white-space: pre;&quot;&gt;&#x9;&lt;/span&gt;amount" style="text;strokeColor=none;fillColor=none;align=left;verticalAlign=middle;spacingLeft=4;spacingRight=4;overflow=hidden;points=[[0,0.5],[1,0.5]];portConstraint=eastwest;rotatable=0;whiteSpace=wrap;html=1;" vertex="1" parent="yTVPJnO3fjhA-Ieh83C9-1">
          <mxGeometry y="180" width="269" height="30" as="geometry" />
        </mxCell>
        <mxCell id="yTVPJnO3fjhA-Ieh83C9-8" value="&lt;b style=&quot;border-color: var(--border-color);&quot;&gt;FK&lt;span style=&quot;white-space: pre;&quot;&gt;&#x9;&lt;/span&gt;&lt;/b&gt;merchantid" style="text;strokeColor=none;fillColor=none;align=left;verticalAlign=middle;spacingLeft=4;spacingRight=4;overflow=hidden;points=[[0,0.5],[1,0.5]];portConstraint=eastwest;rotatable=0;whiteSpace=wrap;html=1;" vertex="1" parent="yTVPJnO3fjhA-Ieh83C9-1">
          <mxGeometry y="210" width="269" height="30" as="geometry" />
        </mxCell>
        <mxCell id="yTVPJnO3fjhA-Ieh83C9-9" value="&lt;b style=&quot;border-color: var(--border-color);&quot;&gt;&lt;b style=&quot;border-color: var(--border-color);&quot;&gt;Mongo&lt;/b&gt;.Payments&lt;/b&gt;" style="swimlane;fontStyle=0;childLayout=stackLayout;horizontal=1;startSize=30;horizontalStack=0;resizeParent=1;resizeParentMax=0;resizeLast=0;collapsible=1;marginBottom=0;whiteSpace=wrap;html=1;" vertex="1" parent="1">
          <mxGeometry x="1202" y="80" width="269" height="240" as="geometry" />
        </mxCell>
        <mxCell id="yTVPJnO3fjhA-Ieh83C9-10" value="&lt;b&gt;PK&lt;/b&gt;&lt;span style=&quot;white-space: pre;&quot;&gt;&#x9;&lt;/span&gt;id" style="text;strokeColor=none;fillColor=none;align=left;verticalAlign=middle;spacingLeft=4;spacingRight=4;overflow=hidden;points=[[0,0.5],[1,0.5]];portConstraint=eastwest;rotatable=0;whiteSpace=wrap;html=1;" vertex="1" parent="yTVPJnO3fjhA-Ieh83C9-9">
          <mxGeometry y="30" width="269" height="30" as="geometry" />
        </mxCell>
        <mxCell id="yTVPJnO3fjhA-Ieh83C9-11" value="&lt;span style=&quot;white-space: pre;&quot;&gt;&#x9;&lt;/span&gt;createdat" style="text;strokeColor=none;fillColor=none;align=left;verticalAlign=middle;spacingLeft=4;spacingRight=4;overflow=hidden;points=[[0,0.5],[1,0.5]];portConstraint=eastwest;rotatable=0;whiteSpace=wrap;html=1;" vertex="1" parent="yTVPJnO3fjhA-Ieh83C9-9">
          <mxGeometry y="60" width="269" height="30" as="geometry" />
        </mxCell>
        <mxCell id="yTVPJnO3fjhA-Ieh83C9-12" value="&lt;b&gt;FK&lt;/b&gt;&lt;span style=&quot;font-weight: bold; white-space: pre;&quot;&gt;&#x9;&lt;/span&gt;transactionid" style="text;strokeColor=none;fillColor=none;align=left;verticalAlign=middle;spacingLeft=4;spacingRight=4;overflow=hidden;points=[[0,0.5],[1,0.5]];portConstraint=eastwest;rotatable=0;whiteSpace=wrap;html=1;" vertex="1" parent="yTVPJnO3fjhA-Ieh83C9-9">
          <mxGeometry y="90" width="269" height="30" as="geometry" />
        </mxCell>
        <mxCell id="yTVPJnO3fjhA-Ieh83C9-13" value="&lt;span style=&quot;white-space: pre;&quot;&gt;&#x9;&lt;/span&gt;type" style="text;strokeColor=none;fillColor=none;align=left;verticalAlign=middle;spacingLeft=4;spacingRight=4;overflow=hidden;points=[[0,0.5],[1,0.5]];portConstraint=eastwest;rotatable=0;whiteSpace=wrap;html=1;" vertex="1" parent="yTVPJnO3fjhA-Ieh83C9-9">
          <mxGeometry y="120" width="269" height="30" as="geometry" />
        </mxCell>
        <mxCell id="yTVPJnO3fjhA-Ieh83C9-14" value="&lt;span style=&quot;white-space: pre;&quot;&gt;&#x9;&lt;/span&gt;subtype" style="text;strokeColor=none;fillColor=none;align=left;verticalAlign=middle;spacingLeft=4;spacingRight=4;overflow=hidden;points=[[0,0.5],[1,0.5]];portConstraint=eastwest;rotatable=0;whiteSpace=wrap;html=1;" vertex="1" parent="yTVPJnO3fjhA-Ieh83C9-9">
          <mxGeometry y="150" width="269" height="30" as="geometry" />
        </mxCell>
        <mxCell id="yTVPJnO3fjhA-Ieh83C9-15" value="&lt;span style=&quot;white-space: pre;&quot;&gt;&#x9;&lt;/span&gt;amount" style="text;strokeColor=none;fillColor=none;align=left;verticalAlign=middle;spacingLeft=4;spacingRight=4;overflow=hidden;points=[[0,0.5],[1,0.5]];portConstraint=eastwest;rotatable=0;whiteSpace=wrap;html=1;" vertex="1" parent="yTVPJnO3fjhA-Ieh83C9-9">
          <mxGeometry y="180" width="269" height="30" as="geometry" />
        </mxCell>
        <mxCell id="yTVPJnO3fjhA-Ieh83C9-16" value="&lt;b&gt;FK&lt;span style=&quot;white-space: pre;&quot;&gt;&#x9;&lt;/span&gt;&lt;/b&gt;merchantid" style="text;strokeColor=none;fillColor=none;align=left;verticalAlign=middle;spacingLeft=4;spacingRight=4;overflow=hidden;points=[[0,0.5],[1,0.5]];portConstraint=eastwest;rotatable=0;whiteSpace=wrap;html=1;" vertex="1" parent="yTVPJnO3fjhA-Ieh83C9-9">
          <mxGeometry y="210" width="269" height="30" as="geometry" />
        </mxCell>
        <mxCell id="yTVPJnO3fjhA-Ieh83C9-17" value="&lt;b style=&quot;border-color: var(--border-color);&quot;&gt;&lt;b style=&quot;border-color: var(--border-color);&quot;&gt;Mongo&lt;/b&gt;.Transactions&lt;/b&gt;" style="swimlane;fontStyle=0;childLayout=stackLayout;horizontal=1;startSize=30;horizontalStack=0;resizeParent=1;resizeParentMax=0;resizeLast=0;collapsible=1;marginBottom=0;whiteSpace=wrap;html=1;" vertex="1" parent="1">
          <mxGeometry x="1550" y="80" width="269" height="210" as="geometry" />
        </mxCell>
        <mxCell id="yTVPJnO3fjhA-Ieh83C9-18" value="&lt;b&gt;PK&lt;/b&gt;&lt;span style=&quot;white-space: pre;&quot;&gt;&#x9;&lt;/span&gt;id" style="text;strokeColor=none;fillColor=none;align=left;verticalAlign=middle;spacingLeft=4;spacingRight=4;overflow=hidden;points=[[0,0.5],[1,0.5]];portConstraint=eastwest;rotatable=0;whiteSpace=wrap;html=1;" vertex="1" parent="yTVPJnO3fjhA-Ieh83C9-17">
          <mxGeometry y="30" width="269" height="30" as="geometry" />
        </mxCell>
        <mxCell id="yTVPJnO3fjhA-Ieh83C9-19" value="&lt;b&gt;CPK&amp;nbsp;&lt;/b&gt;__v" style="text;strokeColor=none;fillColor=none;align=left;verticalAlign=middle;spacingLeft=4;spacingRight=4;overflow=hidden;points=[[0,0.5],[1,0.5]];portConstraint=eastwest;rotatable=0;whiteSpace=wrap;html=1;" vertex="1" parent="yTVPJnO3fjhA-Ieh83C9-17">
          <mxGeometry y="60" width="269" height="30" as="geometry" />
        </mxCell>
        <mxCell id="yTVPJnO3fjhA-Ieh83C9-20" value="&lt;b&gt;CPK&amp;nbsp;&lt;/b&gt;__id" style="text;strokeColor=none;fillColor=none;align=left;verticalAlign=middle;spacingLeft=4;spacingRight=4;overflow=hidden;points=[[0,0.5],[1,0.5]];portConstraint=eastwest;rotatable=0;whiteSpace=wrap;html=1;" vertex="1" parent="yTVPJnO3fjhA-Ieh83C9-17">
          <mxGeometry y="90" width="269" height="30" as="geometry" />
        </mxCell>
        <mxCell id="yTVPJnO3fjhA-Ieh83C9-21" value="&lt;b&gt;FK&lt;/b&gt;&lt;span style=&quot;font-weight: bold; white-space: pre;&quot;&gt;&#x9;&lt;/span&gt;paymentid" style="text;strokeColor=none;fillColor=none;align=left;verticalAlign=middle;spacingLeft=4;spacingRight=4;overflow=hidden;points=[[0,0.5],[1,0.5]];portConstraint=eastwest;rotatable=0;whiteSpace=wrap;html=1;" vertex="1" parent="yTVPJnO3fjhA-Ieh83C9-17">
          <mxGeometry y="120" width="269" height="30" as="geometry" />
        </mxCell>
        <mxCell id="yTVPJnO3fjhA-Ieh83C9-22" value="&lt;b&gt;FK&lt;/b&gt;&lt;span style=&quot;white-space: pre;&quot;&gt;&#x9;&lt;/span&gt;addressID" style="text;strokeColor=none;fillColor=none;align=left;verticalAlign=middle;spacingLeft=4;spacingRight=4;overflow=hidden;points=[[0,0.5],[1,0.5]];portConstraint=eastwest;rotatable=0;whiteSpace=wrap;html=1;" vertex="1" parent="yTVPJnO3fjhA-Ieh83C9-17">
          <mxGeometry y="150" width="269" height="30" as="geometry" />
        </mxCell>
        <mxCell id="yTVPJnO3fjhA-Ieh83C9-23" value="&lt;span style=&quot;white-space: pre;&quot;&gt;&#x9;&lt;/span&gt;txhash" style="text;strokeColor=none;fillColor=none;align=left;verticalAlign=middle;spacingLeft=4;spacingRight=4;overflow=hidden;points=[[0,0.5],[1,0.5]];portConstraint=eastwest;rotatable=0;whiteSpace=wrap;html=1;" vertex="1" parent="yTVPJnO3fjhA-Ieh83C9-17">
          <mxGeometry y="180" width="269" height="30" as="geometry" />
        </mxCell>
        <mxCell id="yTVPJnO3fjhA-Ieh83C9-24" value="&lt;b style=&quot;border-color: var(--border-color);&quot;&gt;&lt;b style=&quot;border-color: var(--border-color);&quot;&gt;Mongo&lt;/b&gt;.Addresses&lt;/b&gt;" style="swimlane;fontStyle=0;childLayout=stackLayout;horizontal=1;startSize=30;horizontalStack=0;resizeParent=1;resizeParentMax=0;resizeLast=0;collapsible=1;marginBottom=0;whiteSpace=wrap;html=1;" vertex="1" parent="1">
          <mxGeometry x="1910" y="400" width="269" height="150" as="geometry" />
        </mxCell>
        <mxCell id="yTVPJnO3fjhA-Ieh83C9-25" value="&lt;b&gt;PK&lt;/b&gt;&lt;span style=&quot;white-space: pre;&quot;&gt;&#x9;&lt;/span&gt;id" style="text;strokeColor=none;fillColor=none;align=left;verticalAlign=middle;spacingLeft=4;spacingRight=4;overflow=hidden;points=[[0,0.5],[1,0.5]];portConstraint=eastwest;rotatable=0;whiteSpace=wrap;html=1;" vertex="1" parent="yTVPJnO3fjhA-Ieh83C9-24">
          <mxGeometry y="30" width="269" height="30" as="geometry" />
        </mxCell>
        <mxCell id="yTVPJnO3fjhA-Ieh83C9-26" value="&lt;b&gt;FK&lt;/b&gt;&lt;span style=&quot;font-weight: bold; white-space: pre;&quot;&gt;&#x9;&lt;/span&gt;paymentid" style="text;strokeColor=none;fillColor=none;align=left;verticalAlign=middle;spacingLeft=4;spacingRight=4;overflow=hidden;points=[[0,0.5],[1,0.5]];portConstraint=eastwest;rotatable=0;whiteSpace=wrap;html=1;" vertex="1" parent="yTVPJnO3fjhA-Ieh83C9-24">
          <mxGeometry y="60" width="269" height="30" as="geometry" />
        </mxCell>
        <mxCell id="yTVPJnO3fjhA-Ieh83C9-27" value="&lt;span style=&quot;white-space: pre;&quot;&gt;&#x9;&lt;/span&gt;externalID" style="text;strokeColor=none;fillColor=none;align=left;verticalAlign=middle;spacingLeft=4;spacingRight=4;overflow=hidden;points=[[0,0.5],[1,0.5]];portConstraint=eastwest;rotatable=0;whiteSpace=wrap;html=1;" vertex="1" parent="yTVPJnO3fjhA-Ieh83C9-24">
          <mxGeometry y="90" width="269" height="30" as="geometry" />
        </mxCell>
        <mxCell id="yTVPJnO3fjhA-Ieh83C9-28" value="&lt;span style=&quot;white-space: pre;&quot;&gt;&#x9;&lt;/span&gt;type" style="text;strokeColor=none;fillColor=none;align=left;verticalAlign=middle;spacingLeft=4;spacingRight=4;overflow=hidden;points=[[0,0.5],[1,0.5]];portConstraint=eastwest;rotatable=0;whiteSpace=wrap;html=1;" vertex="1" parent="yTVPJnO3fjhA-Ieh83C9-24">
          <mxGeometry y="120" width="269" height="30" as="geometry" />
        </mxCell>
        <mxCell id="yTVPJnO3fjhA-Ieh83C9-29" value="&lt;b style=&quot;border-color: var(--border-color);&quot;&gt;&lt;b style=&quot;border-color: var(--border-color);&quot;&gt;Mongo&lt;/b&gt;.Transactions__details__destinations&lt;/b&gt;" style="swimlane;fontStyle=0;childLayout=stackLayout;horizontal=1;startSize=30;horizontalStack=0;resizeParent=1;resizeParentMax=0;resizeLast=0;collapsible=1;marginBottom=0;whiteSpace=wrap;html=1;" vertex="1" parent="1">
          <mxGeometry x="1910" y="80" width="269" height="150" as="geometry" />
        </mxCell>
        <mxCell id="yTVPJnO3fjhA-Ieh83C9-30" value="&lt;b&gt;PK&lt;/b&gt;&lt;span style=&quot;white-space: pre;&quot;&gt;&#x9;&lt;/span&gt;_id" style="text;strokeColor=none;fillColor=none;align=left;verticalAlign=middle;spacingLeft=4;spacingRight=4;overflow=hidden;points=[[0,0.5],[1,0.5]];portConstraint=eastwest;rotatable=0;whiteSpace=wrap;html=1;" vertex="1" parent="yTVPJnO3fjhA-Ieh83C9-29">
          <mxGeometry y="30" width="269" height="30" as="geometry" />
        </mxCell>
        <mxCell id="yTVPJnO3fjhA-Ieh83C9-31" value="&lt;b&gt;FK&lt;/b&gt;&lt;span style=&quot;font-weight: bold;&quot;&gt;&lt;span style=&quot;white-space: pre;&quot;&gt;&amp;nbsp;&amp;nbsp;&amp;nbsp;&amp;nbsp;&lt;/span&gt;&lt;/span&gt;_sdc_level_0_id" style="text;strokeColor=none;fillColor=none;align=left;verticalAlign=middle;spacingLeft=4;spacingRight=4;overflow=hidden;points=[[0,0.5],[1,0.5]];portConstraint=eastwest;rotatable=0;whiteSpace=wrap;html=1;" vertex="1" parent="yTVPJnO3fjhA-Ieh83C9-29">
          <mxGeometry y="60" width="269" height="30" as="geometry" />
        </mxCell>
        <mxCell id="yTVPJnO3fjhA-Ieh83C9-32" value="&lt;b&gt;FK&lt;/b&gt;&lt;span style=&quot;font-weight: bold;&quot;&gt;&lt;span style=&quot;&quot;&gt;&amp;nbsp;&amp;nbsp;&amp;nbsp;&amp;nbsp;&lt;/span&gt;&lt;/span&gt;_sdc_source_key__id" style="text;strokeColor=none;fillColor=none;align=left;verticalAlign=middle;spacingLeft=4;spacingRight=4;overflow=hidden;points=[[0,0.5],[1,0.5]];portConstraint=eastwest;rotatable=0;whiteSpace=wrap;html=1;" vertex="1" parent="yTVPJnO3fjhA-Ieh83C9-29">
          <mxGeometry y="90" width="269" height="30" as="geometry" />
        </mxCell>
        <mxCell id="yTVPJnO3fjhA-Ieh83C9-33" value="&lt;span style=&quot;white-space: pre;&quot;&gt;&#x9;&lt;/span&gt;address" style="text;strokeColor=none;fillColor=none;align=left;verticalAlign=middle;spacingLeft=4;spacingRight=4;overflow=hidden;points=[[0,0.5],[1,0.5]];portConstraint=eastwest;rotatable=0;whiteSpace=wrap;html=1;" vertex="1" parent="yTVPJnO3fjhA-Ieh83C9-29">
          <mxGeometry y="120" width="269" height="30" as="geometry" />
        </mxCell>
        <mxCell id="yTVPJnO3fjhA-Ieh83C9-34" value="&lt;b style=&quot;border-color: var(--border-color);&quot;&gt;Dynamo.Prd_merchants&lt;/b&gt;" style="swimlane;fontStyle=0;childLayout=stackLayout;horizontal=1;startSize=30;horizontalStack=0;resizeParent=1;resizeParentMax=0;resizeLast=0;collapsible=1;marginBottom=0;whiteSpace=wrap;html=1;" vertex="1" parent="1">
          <mxGeometry x="1550" y="610" width="269" height="120" as="geometry" />
        </mxCell>
        <mxCell id="yTVPJnO3fjhA-Ieh83C9-35" value="&lt;b&gt;PK&lt;/b&gt;&lt;span style=&quot;white-space: pre;&quot;&gt;&#x9;&lt;/span&gt;id" style="text;strokeColor=none;fillColor=none;align=left;verticalAlign=middle;spacingLeft=4;spacingRight=4;overflow=hidden;points=[[0,0.5],[1,0.5]];portConstraint=eastwest;rotatable=0;whiteSpace=wrap;html=1;" vertex="1" parent="yTVPJnO3fjhA-Ieh83C9-34">
          <mxGeometry y="30" width="269" height="30" as="geometry" />
        </mxCell>
        <mxCell id="yTVPJnO3fjhA-Ieh83C9-36" value="&lt;b&gt;FK&lt;/b&gt;&lt;span style=&quot;white-space: pre;&quot;&gt;&#x9;&lt;/span&gt;merchantname" style="text;strokeColor=none;fillColor=none;align=left;verticalAlign=middle;spacingLeft=4;spacingRight=4;overflow=hidden;points=[[0,0.5],[1,0.5]];portConstraint=eastwest;rotatable=0;whiteSpace=wrap;html=1;" vertex="1" parent="yTVPJnO3fjhA-Ieh83C9-34">
          <mxGeometry y="60" width="269" height="30" as="geometry" />
        </mxCell>
        <mxCell id="yTVPJnO3fjhA-Ieh83C9-37" value="&lt;b&gt;FK&lt;/b&gt;&lt;span style=&quot;white-space: pre;&quot;&gt;&#x9;&lt;/span&gt;issuerentityid" style="text;strokeColor=none;fillColor=none;align=left;verticalAlign=middle;spacingLeft=4;spacingRight=4;overflow=hidden;points=[[0,0.5],[1,0.5]];portConstraint=eastwest;rotatable=0;whiteSpace=wrap;html=1;" vertex="1" parent="yTVPJnO3fjhA-Ieh83C9-34">
          <mxGeometry y="90" width="269" height="30" as="geometry" />
        </mxCell>
        <mxCell id="yTVPJnO3fjhA-Ieh83C9-38" value="&lt;b&gt;Dynamo.Prd_merchants__routes&lt;/b&gt;" style="swimlane;fontStyle=0;childLayout=stackLayout;horizontal=1;startSize=30;horizontalStack=0;resizeParent=1;resizeParentMax=0;resizeLast=0;collapsible=1;marginBottom=0;whiteSpace=wrap;html=1;" vertex="1" parent="1">
          <mxGeometry x="1910" y="610" width="269" height="120" as="geometry" />
        </mxCell>
        <mxCell id="yTVPJnO3fjhA-Ieh83C9-39" value="&lt;b&gt;PK&lt;/b&gt;&lt;span style=&quot;white-space: pre;&quot;&gt;&#x9;&lt;/span&gt;id" style="text;strokeColor=none;fillColor=none;align=left;verticalAlign=middle;spacingLeft=4;spacingRight=4;overflow=hidden;points=[[0,0.5],[1,0.5]];portConstraint=eastwest;rotatable=0;whiteSpace=wrap;html=1;" vertex="1" parent="yTVPJnO3fjhA-Ieh83C9-38">
          <mxGeometry y="30" width="269" height="30" as="geometry" />
        </mxCell>
        <mxCell id="yTVPJnO3fjhA-Ieh83C9-40" value="&lt;b&gt;FK&lt;/b&gt;&lt;span style=&quot;font-weight: bold;&quot;&gt;&lt;span style=&quot;white-space: pre;&quot;&gt;&amp;nbsp;&amp;nbsp;&amp;nbsp;&amp;nbsp;&lt;/span&gt;&lt;/span&gt;_sdc_source_key_id" style="text;strokeColor=none;fillColor=none;align=left;verticalAlign=middle;spacingLeft=4;spacingRight=4;overflow=hidden;points=[[0,0.5],[1,0.5]];portConstraint=eastwest;rotatable=0;whiteSpace=wrap;html=1;" vertex="1" parent="yTVPJnO3fjhA-Ieh83C9-38">
          <mxGeometry y="60" width="269" height="30" as="geometry" />
        </mxCell>
        <mxCell id="yTVPJnO3fjhA-Ieh83C9-41" value="&lt;span style=&quot;white-space: pre;&quot;&gt;&#x9;&lt;/span&gt;vendor" style="text;strokeColor=none;fillColor=none;align=left;verticalAlign=middle;spacingLeft=4;spacingRight=4;overflow=hidden;points=[[0,0.5],[1,0.5]];portConstraint=eastwest;rotatable=0;whiteSpace=wrap;html=1;" vertex="1" parent="yTVPJnO3fjhA-Ieh83C9-38">
          <mxGeometry y="90" width="269" height="30" as="geometry" />
        </mxCell>
        <mxCell id="yTVPJnO3fjhA-Ieh83C9-42" value="&lt;b style=&quot;border-color: var(--border-color);&quot;&gt;Gsheets.Cliententities&lt;/b&gt;" style="swimlane;fontStyle=0;childLayout=stackLayout;horizontal=1;startSize=30;horizontalStack=0;resizeParent=1;resizeParentMax=0;resizeLast=0;collapsible=1;marginBottom=0;whiteSpace=wrap;html=1;" vertex="1" parent="1">
          <mxGeometry x="1910" y="870" width="269" height="120" as="geometry" />
        </mxCell>
        <mxCell id="yTVPJnO3fjhA-Ieh83C9-43" value="&lt;b&gt;PK&lt;/b&gt;&lt;span style=&quot;white-space: pre;&quot;&gt;&#x9;&lt;/span&gt;_id" style="text;strokeColor=none;fillColor=none;align=left;verticalAlign=middle;spacingLeft=4;spacingRight=4;overflow=hidden;points=[[0,0.5],[1,0.5]];portConstraint=eastwest;rotatable=0;whiteSpace=wrap;html=1;" vertex="1" parent="yTVPJnO3fjhA-Ieh83C9-42">
          <mxGeometry y="30" width="269" height="30" as="geometry" />
        </mxCell>
        <mxCell id="yTVPJnO3fjhA-Ieh83C9-44" value="&lt;b&gt;FK&lt;span style=&quot;white-space: pre;&quot;&gt;&#x9;&lt;/span&gt;&lt;/b&gt;entityid" style="text;strokeColor=none;fillColor=none;align=left;verticalAlign=middle;spacingLeft=4;spacingRight=4;overflow=hidden;points=[[0,0.5],[1,0.5]];portConstraint=eastwest;rotatable=0;whiteSpace=wrap;html=1;" vertex="1" parent="yTVPJnO3fjhA-Ieh83C9-42">
          <mxGeometry y="60" width="269" height="30" as="geometry" />
        </mxCell>
        <mxCell id="yTVPJnO3fjhA-Ieh83C9-45" value="&lt;span style=&quot;white-space: pre;&quot;&gt;&#x9;&lt;/span&gt;txhash" style="text;strokeColor=none;fillColor=none;align=left;verticalAlign=middle;spacingLeft=4;spacingRight=4;overflow=hidden;points=[[0,0.5],[1,0.5]];portConstraint=eastwest;rotatable=0;whiteSpace=wrap;html=1;" vertex="1" parent="yTVPJnO3fjhA-Ieh83C9-42">
          <mxGeometry y="90" width="269" height="30" as="geometry" />
        </mxCell>
        <mxCell id="yTVPJnO3fjhA-Ieh83C9-46" value="&lt;b&gt;Gsheets.Clientnames&lt;/b&gt;" style="swimlane;fontStyle=0;childLayout=stackLayout;horizontal=1;startSize=30;horizontalStack=0;resizeParent=1;resizeParentMax=0;resizeLast=0;collapsible=1;marginBottom=0;whiteSpace=wrap;html=1;" vertex="1" parent="1">
          <mxGeometry x="1910" y="740" width="269" height="120" as="geometry" />
        </mxCell>
        <mxCell id="yTVPJnO3fjhA-Ieh83C9-47" value="&lt;b&gt;PK&lt;/b&gt;&lt;span style=&quot;white-space: pre;&quot;&gt;&#x9;&lt;/span&gt;_id" style="text;strokeColor=none;fillColor=none;align=left;verticalAlign=middle;spacingLeft=4;spacingRight=4;overflow=hidden;points=[[0,0.5],[1,0.5]];portConstraint=eastwest;rotatable=0;whiteSpace=wrap;html=1;" vertex="1" parent="yTVPJnO3fjhA-Ieh83C9-46">
          <mxGeometry y="30" width="269" height="30" as="geometry" />
        </mxCell>
        <mxCell id="yTVPJnO3fjhA-Ieh83C9-48" value="&lt;b&gt;CPK&amp;nbsp;&lt;/b&gt;manual_name" style="text;strokeColor=none;fillColor=none;align=left;verticalAlign=middle;spacingLeft=4;spacingRight=4;overflow=hidden;points=[[0,0.5],[1,0.5]];portConstraint=eastwest;rotatable=0;whiteSpace=wrap;html=1;" vertex="1" parent="yTVPJnO3fjhA-Ieh83C9-46">
          <mxGeometry y="60" width="269" height="30" as="geometry" />
        </mxCell>
        <mxCell id="yTVPJnO3fjhA-Ieh83C9-49" value="&lt;span style=&quot;white-space: pre;&quot;&gt;&#x9;&lt;/span&gt;registered_company_name" style="text;strokeColor=none;fillColor=none;align=left;verticalAlign=middle;spacingLeft=4;spacingRight=4;overflow=hidden;points=[[0,0.5],[1,0.5]];portConstraint=eastwest;rotatable=0;whiteSpace=wrap;html=1;" vertex="1" parent="yTVPJnO3fjhA-Ieh83C9-46">
          <mxGeometry y="90" width="269" height="30" as="geometry" />
        </mxCell>
        <mxCell id="yTVPJnO3fjhA-Ieh83C9-50" value="" style="edgeStyle=entityRelationEdgeStyle;fontSize=12;html=1;endArrow=ERzeroToMany;startArrow=ERmandOne;rounded=0;exitX=1;exitY=0.5;exitDx=0;exitDy=0;entryX=0;entryY=0.5;entryDx=0;entryDy=0;" edge="1" parent="1" source="yTVPJnO3fjhA-Ieh83C9-10" target="yTVPJnO3fjhA-Ieh83C9-21">
          <mxGeometry width="100" height="100" relative="1" as="geometry">
            <mxPoint x="1741" y="350" as="sourcePoint" />
            <mxPoint x="1841" y="250" as="targetPoint" />
          </mxGeometry>
        </mxCell>
        <mxCell id="yTVPJnO3fjhA-Ieh83C9-51" value="" style="edgeStyle=entityRelationEdgeStyle;fontSize=12;html=1;endArrow=ERoneToMany;startArrow=ERzeroToOne;rounded=0;exitX=1;exitY=0.5;exitDx=0;exitDy=0;entryX=0;entryY=0.5;entryDx=0;entryDy=0;" edge="1" parent="1" source="yTVPJnO3fjhA-Ieh83C9-22" target="yTVPJnO3fjhA-Ieh83C9-25">
          <mxGeometry width="100" height="100" relative="1" as="geometry">
            <mxPoint x="1741" y="350" as="sourcePoint" />
            <mxPoint x="1841" y="250" as="targetPoint" />
            <Array as="points">
              <mxPoint x="1861" y="270" />
              <mxPoint x="1871" y="260" />
            </Array>
          </mxGeometry>
        </mxCell>
        <mxCell id="yTVPJnO3fjhA-Ieh83C9-52" value="" style="edgeStyle=entityRelationEdgeStyle;fontSize=12;html=1;endArrow=ERoneToMany;startArrow=ERzeroToOne;rounded=0;exitX=1;exitY=0.5;exitDx=0;exitDy=0;entryX=0;entryY=0.5;entryDx=0;entryDy=0;" edge="1" parent="1" source="yTVPJnO3fjhA-Ieh83C9-19" target="yTVPJnO3fjhA-Ieh83C9-31">
          <mxGeometry width="100" height="100" relative="1" as="geometry">
            <mxPoint x="1860" y="255" as="sourcePoint" />
            <mxPoint x="1921" y="305" as="targetPoint" />
            <Array as="points">
              <mxPoint x="1871" y="280" />
              <mxPoint x="1881" y="270" />
            </Array>
          </mxGeometry>
        </mxCell>
        <mxCell id="yTVPJnO3fjhA-Ieh83C9-53" value="" style="edgeStyle=entityRelationEdgeStyle;fontSize=12;html=1;endArrow=ERoneToMany;startArrow=ERzeroToOne;rounded=0;exitX=1;exitY=0.5;exitDx=0;exitDy=0;entryX=0;entryY=0.5;entryDx=0;entryDy=0;" edge="1" parent="1" source="yTVPJnO3fjhA-Ieh83C9-20" target="yTVPJnO3fjhA-Ieh83C9-32">
          <mxGeometry width="100" height="100" relative="1" as="geometry">
            <mxPoint x="1860" y="199.57999999999998" as="sourcePoint" />
            <mxPoint x="1921" y="199.57999999999998" as="targetPoint" />
            <Array as="points">
              <mxPoint x="1881" y="214.57999999999998" />
              <mxPoint x="1881" y="324.58" />
              <mxPoint x="1891" y="314.58" />
            </Array>
          </mxGeometry>
        </mxCell>
        <mxCell id="yTVPJnO3fjhA-Ieh83C9-54" value="" style="edgeStyle=entityRelationEdgeStyle;fontSize=12;html=1;endArrow=ERzeroToMany;startArrow=ERmandOne;rounded=0;exitX=1;exitY=0.5;exitDx=0;exitDy=0;entryX=0;entryY=0.5;entryDx=0;entryDy=0;" edge="1" parent="1" source="yTVPJnO3fjhA-Ieh83C9-35" target="yTVPJnO3fjhA-Ieh83C9-40">
          <mxGeometry width="100" height="100" relative="1" as="geometry">
            <mxPoint x="1761" y="600" as="sourcePoint" />
            <mxPoint x="1871" y="790" as="targetPoint" />
          </mxGeometry>
        </mxCell>
        <mxCell id="yTVPJnO3fjhA-Ieh83C9-55" value="" style="edgeStyle=entityRelationEdgeStyle;fontSize=12;html=1;endArrow=ERmandOne;startArrow=ERmandOne;rounded=0;entryX=0;entryY=0.5;entryDx=0;entryDy=0;exitX=1;exitY=0.5;exitDx=0;exitDy=0;" edge="1" parent="1" source="yTVPJnO3fjhA-Ieh83C9-37" target="yTVPJnO3fjhA-Ieh83C9-44">
          <mxGeometry width="100" height="100" relative="1" as="geometry">
            <mxPoint x="1751" y="680" as="sourcePoint" />
            <mxPoint x="1851" y="580" as="targetPoint" />
            <Array as="points">
              <mxPoint x="1871" y="720" />
              <mxPoint x="1891" y="870" />
              <mxPoint x="1851" y="845" />
            </Array>
          </mxGeometry>
        </mxCell>
        <mxCell id="yTVPJnO3fjhA-Ieh83C9-56" value="" style="edgeStyle=entityRelationEdgeStyle;fontSize=12;html=1;endArrow=ERmandOne;startArrow=ERmandOne;rounded=0;entryX=0;entryY=0.5;entryDx=0;entryDy=0;exitX=1;exitY=0.5;exitDx=0;exitDy=0;" edge="1" parent="1" source="yTVPJnO3fjhA-Ieh83C9-36" target="yTVPJnO3fjhA-Ieh83C9-48">
          <mxGeometry width="100" height="100" relative="1" as="geometry">
            <mxPoint x="1860" y="605" as="sourcePoint" />
            <mxPoint x="1921" y="718" as="targetPoint" />
          </mxGeometry>
        </mxCell>
        <mxCell id="yTVPJnO3fjhA-Ieh83C9-57" value="" style="edgeStyle=entityRelationEdgeStyle;fontSize=12;html=1;endArrow=ERmandOne;startArrow=ERmandOne;rounded=0;entryX=0;entryY=0.5;entryDx=0;entryDy=0;exitX=1;exitY=0.5;exitDx=0;exitDy=0;" edge="1" parent="1" source="yTVPJnO3fjhA-Ieh83C9-16" target="yTVPJnO3fjhA-Ieh83C9-35">
          <mxGeometry width="100" height="100" relative="1" as="geometry">
            <mxPoint x="1860" y="535" as="sourcePoint" />
            <mxPoint x="1941" y="673" as="targetPoint" />
          </mxGeometry>
        </mxCell>
        <mxCell id="yTVPJnO3fjhA-Ieh83C9-58" value="" style="edgeStyle=entityRelationEdgeStyle;fontSize=12;html=1;endArrow=ERmandOne;startArrow=ERmandOne;rounded=0;entryX=0;entryY=0.5;entryDx=0;entryDy=0;exitX=1;exitY=0.5;exitDx=0;exitDy=0;" edge="1" parent="1" source="yTVPJnO3fjhA-Ieh83C9-8" target="yTVPJnO3fjhA-Ieh83C9-35">
          <mxGeometry width="100" height="100" relative="1" as="geometry">
            <mxPoint x="1481" y="315" as="sourcePoint" />
            <mxPoint x="1591" y="505" as="targetPoint" />
          </mxGeometry>
        </mxCell>
        <mxCell id="yTVPJnO3fjhA-Ieh83C9-59" value="" style="edgeStyle=entityRelationEdgeStyle;fontSize=12;html=1;endArrow=ERmandOne;startArrow=ERmandOne;rounded=0;entryX=0;entryY=0.5;entryDx=0;entryDy=0;exitX=1;exitY=0.5;exitDx=0;exitDy=0;" edge="1" parent="1" source="yTVPJnO3fjhA-Ieh83C9-2" target="yTVPJnO3fjhA-Ieh83C9-21">
          <mxGeometry width="100" height="100" relative="1" as="geometry">
            <mxPoint x="1481" y="565" as="sourcePoint" />
            <mxPoint x="1591" y="505" as="targetPoint" />
          </mxGeometry>
        </mxCell>
        <mxCell id="yTVPJnO3fjhA-Ieh83C9-60" value="&lt;b style=&quot;border-color: var(--border-color);&quot;&gt;Mongo.Plbalancetransactions&lt;/b&gt;" style="swimlane;fontStyle=0;childLayout=stackLayout;horizontal=1;startSize=30;horizontalStack=0;resizeParent=1;resizeParentMax=0;resizeLast=0;collapsible=1;marginBottom=0;whiteSpace=wrap;html=1;" vertex="1" parent="1">
          <mxGeometry x="870" y="80" width="269" height="240" as="geometry" />
        </mxCell>
        <mxCell id="yTVPJnO3fjhA-Ieh83C9-61" value="&lt;b&gt;PK&lt;/b&gt;&lt;span style=&quot;white-space: pre;&quot;&gt;&#x9;&lt;/span&gt;id" style="text;strokeColor=none;fillColor=none;align=left;verticalAlign=middle;spacingLeft=4;spacingRight=4;overflow=hidden;points=[[0,0.5],[1,0.5]];portConstraint=eastwest;rotatable=0;whiteSpace=wrap;html=1;" vertex="1" parent="yTVPJnO3fjhA-Ieh83C9-60">
          <mxGeometry y="30" width="269" height="30" as="geometry" />
        </mxCell>
        <mxCell id="yTVPJnO3fjhA-Ieh83C9-62" value="&lt;b&gt;FK&lt;/b&gt;&lt;span style=&quot;font-weight: bold; white-space: pre;&quot;&gt;&#x9;&lt;/span&gt;transactionid" style="text;strokeColor=none;fillColor=none;align=left;verticalAlign=middle;spacingLeft=4;spacingRight=4;overflow=hidden;points=[[0,0.5],[1,0.5]];portConstraint=eastwest;rotatable=0;whiteSpace=wrap;html=1;" vertex="1" parent="yTVPJnO3fjhA-Ieh83C9-60">
          <mxGeometry y="60" width="269" height="30" as="geometry" />
        </mxCell>
        <mxCell id="yTVPJnO3fjhA-Ieh83C9-63" value="&lt;b&gt;FK&lt;/b&gt;&lt;span style=&quot;white-space: pre;&quot;&gt;&#x9;&lt;/span&gt;paymentid" style="text;strokeColor=none;fillColor=none;align=left;verticalAlign=middle;spacingLeft=4;spacingRight=4;overflow=hidden;points=[[0,0.5],[1,0.5]];portConstraint=eastwest;rotatable=0;whiteSpace=wrap;html=1;" vertex="1" parent="yTVPJnO3fjhA-Ieh83C9-60">
          <mxGeometry y="90" width="269" height="30" as="geometry" />
        </mxCell>
        <mxCell id="yTVPJnO3fjhA-Ieh83C9-64" value="&lt;span style=&quot;white-space: pre;&quot;&gt;&#x9;&lt;/span&gt;transactiontype" style="text;strokeColor=none;fillColor=none;align=left;verticalAlign=middle;spacingLeft=4;spacingRight=4;overflow=hidden;points=[[0,0.5],[1,0.5]];portConstraint=eastwest;rotatable=0;whiteSpace=wrap;html=1;" vertex="1" parent="yTVPJnO3fjhA-Ieh83C9-60">
          <mxGeometry y="120" width="269" height="30" as="geometry" />
        </mxCell>
        <mxCell id="yTVPJnO3fjhA-Ieh83C9-65" value="&lt;span style=&quot;white-space: pre;&quot;&gt;&#x9;&lt;/span&gt;amount" style="text;strokeColor=none;fillColor=none;align=left;verticalAlign=middle;spacingLeft=4;spacingRight=4;overflow=hidden;points=[[0,0.5],[1,0.5]];portConstraint=eastwest;rotatable=0;whiteSpace=wrap;html=1;" vertex="1" parent="yTVPJnO3fjhA-Ieh83C9-60">
          <mxGeometry y="150" width="269" height="30" as="geometry" />
        </mxCell>
        <mxCell id="yTVPJnO3fjhA-Ieh83C9-66" value="&#x9;&lt;span style=&quot;white-space: pre;&quot;&gt;&#x9;&lt;/span&gt;remarks" style="text;strokeColor=none;fillColor=none;align=left;verticalAlign=middle;spacingLeft=4;spacingRight=4;overflow=hidden;points=[[0,0.5],[1,0.5]];portConstraint=eastwest;rotatable=0;whiteSpace=wrap;html=1;" vertex="1" parent="yTVPJnO3fjhA-Ieh83C9-60">
          <mxGeometry y="180" width="269" height="30" as="geometry" />
        </mxCell>
        <mxCell id="yTVPJnO3fjhA-Ieh83C9-67" value="&lt;span style=&quot;white-space: pre;&quot;&gt;&#x9;&lt;/span&gt;debitcredit" style="text;strokeColor=none;fillColor=none;align=left;verticalAlign=middle;spacingLeft=4;spacingRight=4;overflow=hidden;points=[[0,0.5],[1,0.5]];portConstraint=eastwest;rotatable=0;whiteSpace=wrap;html=1;" vertex="1" parent="yTVPJnO3fjhA-Ieh83C9-60">
          <mxGeometry y="210" width="269" height="30" as="geometry" />
        </mxCell>
        <mxCell id="yTVPJnO3fjhA-Ieh83C9-68" value="" style="edgeStyle=entityRelationEdgeStyle;fontSize=12;html=1;endArrow=ERzeroToMany;endFill=1;startArrow=ERzeroToMany;rounded=0;entryX=0;entryY=0.5;entryDx=0;entryDy=0;exitX=1;exitY=0.5;exitDx=0;exitDy=0;" edge="1" parent="1" source="yTVPJnO3fjhA-Ieh83C9-62" target="yTVPJnO3fjhA-Ieh83C9-10">
          <mxGeometry width="100" height="100" relative="1" as="geometry">
            <mxPoint x="1140" y="713" as="sourcePoint" />
            <mxPoint x="1181" y="180" as="targetPoint" />
            <Array as="points">
              <mxPoint x="1151" y="550" />
              <mxPoint x="1111" y="460" />
            </Array>
          </mxGeometry>
        </mxCell>
        <mxCell id="yTVPJnO3fjhA-Ieh83C9-69" value="" style="edgeStyle=entityRelationEdgeStyle;fontSize=12;html=1;endArrow=ERzeroToMany;endFill=1;startArrow=ERzeroToMany;rounded=0;entryX=0;entryY=0.5;entryDx=0;entryDy=0;exitX=1;exitY=0.5;exitDx=0;exitDy=0;" edge="1" parent="1" source="yTVPJnO3fjhA-Ieh83C9-62" target="yTVPJnO3fjhA-Ieh83C9-2">
          <mxGeometry width="100" height="100" relative="1" as="geometry">
            <mxPoint x="1140" y="150" as="sourcePoint" />
            <mxPoint x="1212" y="135" as="targetPoint" />
            <Array as="points">
              <mxPoint x="1161" y="560" />
              <mxPoint x="1121" y="470" />
            </Array>
          </mxGeometry>
        </mxCell>
        <mxCell id="yTVPJnO3fjhA-Ieh83C9-70" value="&lt;b style=&quot;border-color: var(--border-color);&quot;&gt;&lt;b style=&quot;border-color: var(--border-color);&quot;&gt;Mongo&lt;/b&gt;.Transactions__details__destinations&lt;/b&gt;" style="swimlane;fontStyle=0;childLayout=stackLayout;horizontal=1;startSize=30;horizontalStack=0;resizeParent=1;resizeParentMax=0;resizeLast=0;collapsible=1;marginBottom=0;whiteSpace=wrap;html=1;" vertex="1" parent="1">
          <mxGeometry x="1910" y="240" width="269" height="150" as="geometry" />
        </mxCell>
        <mxCell id="yTVPJnO3fjhA-Ieh83C9-71" value="&lt;b&gt;PK&lt;/b&gt;&lt;span style=&quot;white-space: pre;&quot;&gt;&#x9;&lt;/span&gt;_id" style="text;strokeColor=none;fillColor=none;align=left;verticalAlign=middle;spacingLeft=4;spacingRight=4;overflow=hidden;points=[[0,0.5],[1,0.5]];portConstraint=eastwest;rotatable=0;whiteSpace=wrap;html=1;" vertex="1" parent="yTVPJnO3fjhA-Ieh83C9-70">
          <mxGeometry y="30" width="269" height="30" as="geometry" />
        </mxCell>
        <mxCell id="yTVPJnO3fjhA-Ieh83C9-72" value="&lt;b&gt;FK&lt;/b&gt;&lt;span style=&quot;font-weight: bold;&quot;&gt;&lt;span style=&quot;white-space: pre;&quot;&gt;&amp;nbsp;&amp;nbsp;&amp;nbsp;&amp;nbsp;&lt;/span&gt;&lt;/span&gt;_sdc_level_0_id" style="text;strokeColor=none;fillColor=none;align=left;verticalAlign=middle;spacingLeft=4;spacingRight=4;overflow=hidden;points=[[0,0.5],[1,0.5]];portConstraint=eastwest;rotatable=0;whiteSpace=wrap;html=1;" vertex="1" parent="yTVPJnO3fjhA-Ieh83C9-70">
          <mxGeometry y="60" width="269" height="30" as="geometry" />
        </mxCell>
        <mxCell id="yTVPJnO3fjhA-Ieh83C9-73" value="&lt;b&gt;FK&lt;/b&gt;&lt;span style=&quot;font-weight: bold;&quot;&gt;&lt;span style=&quot;&quot;&gt;&amp;nbsp;&amp;nbsp;&amp;nbsp;&amp;nbsp;&lt;/span&gt;&lt;/span&gt;_sdc_source_key__id" style="text;strokeColor=none;fillColor=none;align=left;verticalAlign=middle;spacingLeft=4;spacingRight=4;overflow=hidden;points=[[0,0.5],[1,0.5]];portConstraint=eastwest;rotatable=0;whiteSpace=wrap;html=1;" vertex="1" parent="yTVPJnO3fjhA-Ieh83C9-70">
          <mxGeometry y="90" width="269" height="30" as="geometry" />
        </mxCell>
        <mxCell id="yTVPJnO3fjhA-Ieh83C9-74" value="&lt;span style=&quot;white-space: pre;&quot;&gt;&#x9;&lt;/span&gt;address" style="text;strokeColor=none;fillColor=none;align=left;verticalAlign=middle;spacingLeft=4;spacingRight=4;overflow=hidden;points=[[0,0.5],[1,0.5]];portConstraint=eastwest;rotatable=0;whiteSpace=wrap;html=1;" vertex="1" parent="yTVPJnO3fjhA-Ieh83C9-70">
          <mxGeometry y="120" width="269" height="30" as="geometry" />
        </mxCell>
        <mxCell id="yTVPJnO3fjhA-Ieh83C9-75" value="" style="edgeStyle=entityRelationEdgeStyle;fontSize=12;html=1;endArrow=ERoneToMany;startArrow=ERzeroToOne;rounded=0;exitX=1;exitY=0.5;exitDx=0;exitDy=0;entryX=0;entryY=0.5;entryDx=0;entryDy=0;" edge="1" parent="1" source="yTVPJnO3fjhA-Ieh83C9-19" target="yTVPJnO3fjhA-Ieh83C9-72">
          <mxGeometry width="100" height="100" relative="1" as="geometry">
            <mxPoint x="1820" y="50" as="sourcePoint" />
            <mxPoint x="1901" y="-40" as="targetPoint" />
            <Array as="points">
              <mxPoint x="1841" y="175" />
              <mxPoint x="1851" y="165" />
            </Array>
          </mxGeometry>
        </mxCell>
        <mxCell id="yTVPJnO3fjhA-Ieh83C9-76" value="" style="edgeStyle=entityRelationEdgeStyle;fontSize=12;html=1;endArrow=ERoneToMany;startArrow=ERzeroToOne;rounded=0;exitX=1;exitY=0.5;exitDx=0;exitDy=0;entryX=0;entryY=0.5;entryDx=0;entryDy=0;" edge="1" parent="1" source="yTVPJnO3fjhA-Ieh83C9-20" target="yTVPJnO3fjhA-Ieh83C9-73">
          <mxGeometry width="100" height="100" relative="1" as="geometry">
            <mxPoint x="1860" y="195" as="sourcePoint" />
            <mxPoint x="1941" y="105" as="targetPoint" />
            <Array as="points">
              <mxPoint x="1891" y="224.57999999999998" />
              <mxPoint x="1891" y="334.58" />
              <mxPoint x="1901" y="324.58" />
            </Array>
          </mxGeometry>
        </mxCell>
        <mxCell id="yTVPJnO3fjhA-Ieh83C9-77" value="" style="endArrow=none;dashed=1;html=1;rounded=0;" edge="1" parent="1">
          <mxGeometry width="50" height="50" relative="1" as="geometry">
            <mxPoint x="1160" y="1030" as="sourcePoint" />
            <mxPoint x="1160" as="targetPoint" />
          </mxGeometry>
        </mxCell>
        <mxCell id="yTVPJnO3fjhA-Ieh83C9-78" value="" style="endArrow=none;dashed=1;html=1;rounded=0;" edge="1" parent="1">
          <mxGeometry width="50" height="50" relative="1" as="geometry">
            <mxPoint x="1510" y="1040" as="sourcePoint" />
            <mxPoint x="1510" as="targetPoint" />
          </mxGeometry>
        </mxCell>
        <mxCell id="yTVPJnO3fjhA-Ieh83C9-80" value="Step 1 - Collate payments and settlements&lt;br&gt;Step 4 - Join payments and transactions" style="text;html=1;align=center;verticalAlign=middle;resizable=0;points=[];autosize=1;strokeColor=none;fillColor=none;" vertex="1" parent="1">
          <mxGeometry x="1202" y="25" width="250" height="40" as="geometry" />
        </mxCell>
        <mxCell id="yTVPJnO3fjhA-Ieh83C9-81" value="Step 2 - Join merchant data" style="text;html=1;align=center;verticalAlign=middle;resizable=0;points=[];autosize=1;strokeColor=none;fillColor=none;" vertex="1" parent="1">
          <mxGeometry x="1780" y="570" width="170" height="30" as="geometry" />
        </mxCell>
        <mxCell id="yTVPJnO3fjhA-Ieh83C9-82" value="Step 3 - Collate transaction data" style="text;html=1;align=center;verticalAlign=middle;resizable=0;points=[];autosize=1;strokeColor=none;fillColor=none;" vertex="1" parent="1">
          <mxGeometry x="1770" y="30" width="190" height="30" as="geometry" />
        </mxCell>
        <mxCell id="yTVPJnO3fjhA-Ieh83C9-83" value="" style="endArrow=none;dashed=1;html=1;rounded=0;" edge="1" parent="1">
          <mxGeometry width="50" height="50" relative="1" as="geometry">
            <mxPoint x="2250" y="570" as="sourcePoint" />
            <mxPoint x="1510" y="570" as="targetPoint" />
          </mxGeometry>
        </mxCell>
        <mxCell id="yTVPJnO3fjhA-Ieh83C9-85" value="Step 5 - Join P&amp;amp;L ledger entries" style="text;html=1;align=center;verticalAlign=middle;resizable=0;points=[];autosize=1;strokeColor=none;fillColor=none;" vertex="1" parent="1">
          <mxGeometry x="920" y="35" width="190" height="30" as="geometry" />
        </mxCell>
      </root>
    </mxGraphModel>
  </diagram>
</mxfile>
